<?xml version="1.0" encoding="utf-8"?>
<!-- Svg Vector Icons : http://www.onlinewebfonts.com/icon -->
<!DOCTYPE svg PUBLIC "-//W3C//DTD SVG 1.1//EN" "http://www.w3.org/Graphics/SVG/1.1/DTD/svg11.dtd">
<svg version="1.1" xmlns="http://www.w3.org/2000/svg" xmlns:xlink="http://www.w3.org/1999/xlink" x="0px" y="0px" viewBox="0 0 256 256" enable-background="new 0 0 256 256" xml:space="preserve">
<metadata> Svg Vector Icons : http://www.onlinewebfonts.com/icon </metadata>
<g><g><g><path fill="#000000" d="M39.6,39.6c-13.8,2.9-24.7,13.8-28.5,28.3L10,71.9V128v56.1l1.1,3.9c3.9,14.7,14.8,25.5,28.8,28.4c3.2,0.6,12.6,0.7,88.1,0.7c92.7,0,87.6,0.1,94.6-2.7c11-4.5,19.1-14.1,22.4-26.4l1.1-3.9V128V71.9l-1.1-3.9c-3.9-14.7-14.8-25.5-28.8-28.4c-3.2-0.6-12.6-0.7-88.4-0.7C54.4,38.9,42.4,39,39.6,39.6z M214.6,57.7c5,1.8,9.2,5.9,11.4,11.1l1,2.5v56.3c0,53.4,0,56.5-0.8,58.7c-1.2,3.4-4.3,7.4-7.3,9.5c-5,3.4,2,3.2-92.8,3l-85.2-0.1l-2.7-1.2c-3.3-1.5-7.2-5.1-8.8-8.2c-2.6-4.8-2.6-3.9-2.6-61.4c0-56.6,0-56.4,2.3-61c1.3-2.6,4.8-6.2,7.3-7.7c4.2-2.5-0.6-2.4,90.8-2.4C210.1,56.9,212.1,56.9,214.6,57.7z"/><path fill="#000000" d="M84.1,69.1c-7.3,2.1-12.6,8.1-13.9,15.9c-2.2,12.9,9.2,24.8,21.7,22.6c10.3-1.8,16.7-10.1,16.2-20.9c-0.4-7.2-4.3-13.2-10.8-16.3C93.2,68.5,88.3,67.9,84.1,69.1z"/><path fill="#000000" d="M156.5,115.2c-10.3,14.5-19,26.7-19.2,27.1c-0.3,0.5-5.4-0.8-23.6-6l-23.1-6.6l-2,2c-1.1,1.1-12.7,13.7-25.8,27.9L39,185.5l44.6,0.1c24.5,0,64.5,0,88.8,0l44.3-0.1l-20.4-48.4c-11.2-26.6-20.5-48.4-20.6-48.3C175.5,88.8,166.8,100.7,156.5,115.2z"/></g></g></g>
</svg>